<svg width="200" height="200" viewBox="0 0 200 200" xmlns="http://www.w3.org/2000/svg">
  <g fill="#D8A84F">
    <path d="M100 55 L120 85 L100 115 L80 85 Z"/>
    <path d="M100 72 L110 85 L100 98 L90 85 Z" fill="#0A1018"/>
    <path d="M70 120 
             C55 105, 50 85, 60 70 
             C65 60, 75 55, 80 60 
             C70 75, 70 95, 80 110 Z"/>
    <path d="M75 115 
             C65 100, 65 85, 75 70" 
          stroke="#D8A84F" stroke-width="4" fill="none" stroke-linecap="round"/>
    <path d="M130 120 
             C145 105, 150 85, 140 70 
             C135 60, 125 55, 120 60 
             C130 75, 130 95, 120 110 Z"/>
    <path d="M125 115 
             C135 100, 135 85, 125 70" 
          stroke="#D8A84F" stroke-width="4" fill="none" stroke-linecap="round"/>
  </g>
</svg>
